<svg id="Group_115" data-name="Group 115" xmlns="http://www.w3.org/2000/svg" width="1920" height="450" viewBox="0 0 1920 450">
  <rect id="Rectangle_200" data-name="Rectangle 200" width="1920" height="450" fill="#aebfc9"/>
  <path id="Path_152" data-name="Path 152" d="M1616.784,385.909H1480.439v-1.694h134.65V260.025h47.39v1.694h-45.7Z" fill="#eff2f9"/>
  <path id="Path_153" data-name="Path 153" d="M1448.093,357.077H1406.6l-4.635-7.688h-28.079v54.523a6.99,6.99,0,0,0,6.99,6.99h67.212a6.99,6.99,0,0,0,6.99-6.99V364.067A6.99,6.99,0,0,0,1448.093,357.077Z" fill="#5089ab"/>
  <g id="Group_102" data-name="Group 102">
    <path id="Path_154" data-name="Path 154" d="M744.864,248.929V273.1h-1.6V248.929a16.212,16.212,0,0,0-16.193-16.193H494.282v-1.6H727.075A17.81,17.81,0,0,1,744.864,248.929Z" fill="#eff2f9"/>
    <path id="Path_155" data-name="Path 155" d="M489.559,231.938a4.723,4.723,0,1,0,4.723-4.722A4.723,4.723,0,0,0,489.559,231.938Z" fill="#eff2f9"/>
    <path id="Path_156" data-name="Path 156" d="M744.066,267.716a4.722,4.722,0,1,1-4.723,4.722A4.722,4.722,0,0,1,744.066,267.716Z" fill="#eff2f9"/>
  </g>
  <g id="Group_103" data-name="Group 103">
    <rect id="Rectangle_201" data-name="Rectangle 201" width="62.031" height="12.584" transform="translate(878.19 216.307)" fill="#5089ab"/>
    <rect id="Rectangle_202" data-name="Rectangle 202" width="109.82" height="12.584" transform="translate(830.401 238.144)" fill="#5089ab"/>
    <rect id="Rectangle_203" data-name="Rectangle 203" width="83.868" height="12.584" transform="translate(856.352 259.982)" fill="#5089ab"/>
    <rect id="Rectangle_204" data-name="Rectangle 204" width="43.358" height="12.584" transform="translate(896.862 281.819)" fill="#5089ab"/>
  </g>
  <g id="Group_104" data-name="Group 104">
    <path id="Path_157" data-name="Path 157" d="M60.764,374.056l21.878-11.269v3.254l-18.436,9.241v.1l18.436,9.241v3.254L60.764,376.6Z" fill="#eff2f9"/>
    <path id="Path_158" data-name="Path 158" d="M85.709,392.128l13.155-34.185h3.206l-13.2,34.185Z" fill="#eff2f9"/>
    <path id="Path_159" data-name="Path 159" d="M126.92,376.65l-21.878,11.222v-3.254l18.577-9.241v-.1l-18.577-9.241v-3.254l21.878,11.222Z" fill="#eff2f9"/>
  </g>
  <g id="Group_105" data-name="Group 105">
    <path id="Path_160" data-name="Path 160" d="M1459.492,254.082l21.878-11.269v3.253l-18.436,9.242v.1l18.436,9.241V267.9l-21.878-11.269Z" fill="#eff2f9"/>
    <path id="Path_161" data-name="Path 161" d="M1484.437,272.154l13.155-34.185h3.206l-13.2,34.185Z" fill="#eff2f9"/>
    <path id="Path_162" data-name="Path 162" d="M1525.648,256.676,1503.77,267.9v-3.253l18.578-9.241v-.1l-18.578-9.242v-3.253l21.878,11.222Z" fill="#eff2f9"/>
  </g>
  <g id="Group_106" data-name="Group 106">
    <rect id="Rectangle_205" data-name="Rectangle 205" width="34.282" height="15.317" rx="3.51" transform="translate(1215.722 222.088)" fill="#116481"/>
    <rect id="Rectangle_206" data-name="Rectangle 206" width="88.457" height="15.317" rx="3.51" transform="translate(1215.722 249.105)" fill="#116481"/>
    <rect id="Rectangle_207" data-name="Rectangle 207" width="88.457" height="15.317" rx="3.51" transform="translate(1215.722 276.122)" fill="#116481"/>
    <rect id="Rectangle_208" data-name="Rectangle 208" width="18.966" height="15.317" rx="3.51" transform="translate(1314.854 276.122)" fill="#116481"/>
    <rect id="Rectangle_209" data-name="Rectangle 209" width="75.694" height="15.317" rx="3.51" transform="translate(1215.722 303.138)" fill="#116481"/>
  </g>
  <g id="Group_108" data-name="Group 108">
    <rect id="Rectangle_210" data-name="Rectangle 210" width="162.135" height="199.045" rx="18.879" transform="translate(1645.277 193.366)" fill="#0098cc"/>
    <rect id="Rectangle_211" data-name="Rectangle 211" width="162.135" height="199.045" rx="18.879" transform="translate(1659.708 193.366)" fill="#e1e7f4"/>
    <g id="Group_107" data-name="Group 107">
      <rect id="Rectangle_212" data-name="Rectangle 212" width="91.679" height="15.704" rx="3.396" transform="translate(1677.728 217.976)" fill="#58a7d4"/>
      <rect id="Rectangle_213" data-name="Rectangle 213" width="85.737" height="15.704" rx="3.396" transform="translate(1677.728 251.506)" fill="#58a7d4"/>
      <rect id="Rectangle_214" data-name="Rectangle 214" width="70.032" height="15.704" rx="3.396" transform="translate(1677.728 285.037)" fill="#58a7d4"/>
      <rect id="Rectangle_215" data-name="Rectangle 215" width="44.566" height="15.704" rx="3.396" transform="translate(1677.728 318.567)" fill="#58a7d4"/>
      <rect id="Rectangle_216" data-name="Rectangle 216" width="91.679" height="15.704" rx="3.396" transform="translate(1677.728 352.098)" fill="#58a7d4"/>
    </g>
  </g>
  <g id="Group_109" data-name="Group 109">
    <rect id="Rectangle_217" data-name="Rectangle 217" width="178.641" height="219.308" rx="20.801" transform="translate(254.922 193.366)" fill="#e1e7f4"/>
    <path id="Path_163" data-name="Path 163" d="M268.952,227.088V391.873a6.779,6.779,0,0,0,6.771,6.772H412.762a6.78,6.78,0,0,0,6.772-6.772V227.088Z" fill="#0098cc"/>
    <circle id="Ellipse_43" data-name="Ellipse 43" cx="6.547" cy="6.547" r="6.547" transform="matrix(0.16, -0.987, 0.987, 0.16, 274.65, 216.601)" fill="#5089ab"/>
    <circle id="Ellipse_44" data-name="Ellipse 44" cx="6.547" cy="6.547" r="6.547" transform="translate(296.863 216.601) rotate(-80.782)" fill="#aacce6"/>
    <circle id="Ellipse_45" data-name="Ellipse 45" cx="6.547" cy="6.547" r="6.547" transform="matrix(0.16, -0.987, 0.987, 0.16, 319.077, 216.601)" fill="#aacce6"/>
    <rect id="Rectangle_218" data-name="Rectangle 218" width="36.749" height="8.729" transform="translate(281.81 246.332)" fill="#e1e7f4"/>
    <rect id="Rectangle_219" data-name="Rectangle 219" width="78.214" height="8.729" transform="translate(281.81 264.095)" fill="#e1e7f4"/>
    <rect id="Rectangle_220" data-name="Rectangle 220" width="30.826" height="8.729" transform="translate(369.416 264.095)" fill="#aacce6"/>
    <rect id="Rectangle_221" data-name="Rectangle 221" width="22.564" height="8.729" transform="translate(281.81 281.858)" fill="#5089ab"/>
    <rect id="Rectangle_222" data-name="Rectangle 222" width="25.565" height="8.729" transform="translate(314.195 281.858)" fill="#002734"/>
    <rect id="Rectangle_223" data-name="Rectangle 223" width="48.126" height="8.729" transform="translate(344.243 281.858)" fill="#e1e7f4"/>
    <rect id="Rectangle_224" data-name="Rectangle 224" width="36.749" height="8.729" transform="translate(281.81 299.62)" fill="#aacce6"/>
    <rect id="Rectangle_225" data-name="Rectangle 225" width="20.382" height="8.729" transform="translate(302.543 317.383)" fill="#aacce6"/>
    <rect id="Rectangle_226" data-name="Rectangle 226" width="45.888" height="8.729" transform="translate(329.101 317.383)" fill="#002734"/>
    <rect id="Rectangle_227" data-name="Rectangle 227" width="20.635" height="8.729" transform="translate(383.036 317.383)" fill="#aacce6"/>
    <rect id="Rectangle_228" data-name="Rectangle 228" width="30.592" height="8.729" transform="translate(302.543 335.146)" fill="#5089ab"/>
    <rect id="Rectangle_229" data-name="Rectangle 229" width="12.046" height="8.729" transform="translate(337.222 335.146)" fill="#002734"/>
    <rect id="Rectangle_230" data-name="Rectangle 230" width="23.757" height="8.729" transform="translate(355.597 335.146)" fill="#e1e7f4"/>
    <rect id="Rectangle_231" data-name="Rectangle 231" width="15.183" height="8.729" transform="translate(385.762 335.146)" fill="#002734"/>
    <rect id="Rectangle_232" data-name="Rectangle 232" width="20.382" height="8.729" transform="translate(302.543 352.908)" fill="#e1e7f4"/>
    <rect id="Rectangle_233" data-name="Rectangle 233" width="20.382" height="8.729" transform="translate(329.569 352.908)" fill="#5089ab"/>
    <rect id="Rectangle_234" data-name="Rectangle 234" width="36.749" height="8.729" transform="translate(281.81 370.671)" fill="#aacce6"/>
  </g>
  <g id="Group_110" data-name="Group 110">
    <path id="Path_164" data-name="Path 164" d="M504.881,347.927l14.911-7.681v2.218l-12.565,6.3v.065l12.565,6.3v2.217l-14.911-7.681Z" fill="#eff2f9"/>
    <path id="Path_165" data-name="Path 165" d="M524.258,334.526h2.828v9.7h.064a5.262,5.262,0,0,1,2.025-1.992,5.817,5.817,0,0,1,2.892-.8c2.089,0,5.431,1.287,5.431,6.653v9.255H534.67V348.41c0-2.507-.932-4.629-3.6-4.629a4.064,4.064,0,0,0-3.792,2.829,3.418,3.418,0,0,0-.193,1.35v9.383h-2.828Z" fill="#eff2f9"/>
    <path id="Path_166" data-name="Path 166" d="M545.371,337.322v4.467h4.049v2.153h-4.049v8.388c0,1.928.546,3.021,2.121,3.021a6.3,6.3,0,0,0,1.638-.193l.129,2.12a6.893,6.893,0,0,1-2.506.387,3.922,3.922,0,0,1-3.054-1.189c-.8-.836-1.092-2.218-1.092-4.05v-8.484H540.2v-2.153h2.41v-3.728Z" fill="#eff2f9"/>
    <path id="Path_167" data-name="Path 167" d="M552.6,346c0-1.607-.032-2.924-.128-4.21h2.474l.128,2.507h.1a5.362,5.362,0,0,1,4.885-2.861,4.6,4.6,0,0,1,4.4,3.118h.065a6.384,6.384,0,0,1,1.735-2.024,5.308,5.308,0,0,1,3.438-1.094c2.057,0,5.11,1.35,5.11,6.749v9.159h-2.764v-8.8c0-2.989-1.092-4.788-3.374-4.788a3.66,3.66,0,0,0-3.342,2.57,4.675,4.675,0,0,0-.225,1.414v9.609h-2.764v-9.32c0-2.474-1.093-4.273-3.245-4.273a4.214,4.214,0,0,0-3.728,4.21v9.383H552.6Z" fill="#eff2f9"/>
    <path id="Path_168" data-name="Path 168" d="M579.4,334.526h2.828v22.817H579.4Z" fill="#eff2f9"/>
    <path id="Path_169" data-name="Path 169" d="M601.671,349.7l-14.911,7.648v-2.217l12.662-6.3v-.065l-12.662-6.3v-2.218l14.911,7.649Z" fill="#eff2f9"/>
  </g>
  <path id="Path_170" data-name="Path 170" d="M185.026,264.544a29.466,29.466,0,0,0-1.536-3.159l1.756-10.176L174.594,243l-9.4,4.295a29.348,29.348,0,0,0-6.946-.937l-7.931-6.6-12.434,5.121-.98,10.274a29.4,29.4,0,0,0-4.272,5.557l-9.7,3.571-1.782,13.328,8.412,5.989a28.492,28.492,0,0,0,2.67,6.484l-1.755,10.177,10.651,8.207,9.4-4.3a29.346,29.346,0,0,0,6.946.937l7.931,6.605,12.434-5.12.979-10.275a29.359,29.359,0,0,0,4.273-5.557l9.7-3.571,1.782-13.328-8.412-5.989A29.57,29.57,0,0,0,185.026,264.544Zm-20.24,28a18.187,18.187,0,1,1,9.891-23.742A18.208,18.208,0,0,1,164.786,292.548Z" fill="#116481"/>
  <path id="Path_171" data-name="Path 171" d="M109.179,210.384a22.2,22.2,0,0,0-1.985-1.754l-1.729-7.592-9.794-2.624-5.3,5.715a22.162,22.162,0,0,0-5.107,1.363l-7.435-2.3-7.169,7.17,2.3,7.435a22.16,22.16,0,0,0-1.362,5.107l-5.716,5.3L68.5,238l7.592,1.73a22.49,22.49,0,0,0,1.754,1.984,22.2,22.2,0,0,0,1.985,1.754l1.729,7.592,9.794,2.624,5.3-5.715a22.16,22.16,0,0,0,5.107-1.362l7.435,2.3,7.169-7.169-2.3-7.436a22.152,22.152,0,0,0,1.362-5.106l5.716-5.3-2.625-9.794-7.591-1.729A22.359,22.359,0,0,0,109.179,210.384Zm-5.968,25.36a13.713,13.713,0,1,1,0-19.393A13.728,13.728,0,0,1,103.211,235.744Z" fill="#e1e7f4"/>
  <g id="Group_112" data-name="Group 112">
    <g id="Group_111" data-name="Group 111">
      <path id="Path_172" data-name="Path 172" d="M1069.095,320.142a36.245,36.245,0,0,0-1.877-3.861l2.145-12.435-13.016-10.03-11.488,5.248a35.947,35.947,0,0,0-8.489-1.145l-9.692-8.071-15.194,6.258-1.2,12.555a35.919,35.919,0,0,0-5.221,6.791l-11.853,4.364L991.035,336.1l10.28,7.319a34.8,34.8,0,0,0,3.264,7.923l-2.145,12.436,13.016,10.03,11.488-5.249a35.9,35.9,0,0,0,8.489,1.145l9.692,8.071,15.194-6.257,1.2-12.555a35.916,35.916,0,0,0,5.221-6.791l11.853-4.364,2.178-16.287-10.28-7.319A36.2,36.2,0,0,0,1069.095,320.142Zm-24.734,34.221a22.224,22.224,0,1,1,12.087-29.013A22.248,22.248,0,0,1,1044.361,354.363Z" fill="#116481"/>
      <path id="Path_173" data-name="Path 173" d="M1127.379,274.389a20.764,20.764,0,0,0-1.075-2.213l1.229-7.127-7.46-5.748-6.584,3.008a20.556,20.556,0,0,0-4.865-.656l-5.554-4.626-8.708,3.586-.686,7.2a20.537,20.537,0,0,0-2.992,3.892l-6.793,2.5-1.248,9.334,5.891,4.194a19.936,19.936,0,0,0,1.87,4.541l-1.229,7.127,7.46,5.749,6.584-3.008a20.61,20.61,0,0,0,4.865.656l5.554,4.625,8.708-3.586.686-7.2a20.6,20.6,0,0,0,2.992-3.892l6.793-2.5,1.248-9.334-5.891-4.195A20.818,20.818,0,0,0,1127.379,274.389ZM1113.2,294a12.737,12.737,0,1,1,6.927-16.627A12.751,12.751,0,0,1,1113.2,294Z" fill="#0098cc"/>
    </g>
    <path id="Path_174" data-name="Path 174" d="M1148.426,336a27.227,27.227,0,0,0-2.425-2.143l-2.113-9.278-11.968-3.206-6.475,6.984a27.054,27.054,0,0,0-6.24,1.665l-9.086-2.808-8.761,8.761,2.807,9.086a27.074,27.074,0,0,0-1.665,6.241l-6.984,6.474,3.207,11.968,9.277,2.113a26.278,26.278,0,0,0,4.569,4.569l2.113,9.278,11.968,3.207,6.475-6.985a27.113,27.113,0,0,0,6.24-1.664l9.086,2.807,8.761-8.761-2.807-9.086a27.073,27.073,0,0,0,1.665-6.241l6.984-6.474-3.207-11.968-9.277-2.113A27.374,27.374,0,0,0,1148.426,336Zm-7.292,30.991a16.757,16.757,0,1,1,0-23.7A16.775,16.775,0,0,1,1141.134,366.987Z" fill="#eff2f9"/>
  </g>
  <g id="Group_114" data-name="Group 114">
    <path id="Path_175" data-name="Path 175" d="M789.677,391.161H688.625a14.276,14.276,0,0,1-14.26-14.26V314.446a14.276,14.276,0,0,1,14.26-14.26H789.677a14.275,14.275,0,0,1,14.259,14.26V376.9A14.275,14.275,0,0,1,789.677,391.161ZM688.625,306.432a8.023,8.023,0,0,0-8.014,8.014V376.9a8.023,8.023,0,0,0,8.014,8.014H789.677a8.023,8.023,0,0,0,8.014-8.014V314.446a8.023,8.023,0,0,0-8.014-8.014Z" fill="#116481"/>
    <g id="Group_113" data-name="Group 113">
      <rect id="Rectangle_235" data-name="Rectangle 235" width="6.246" height="29.816" transform="translate(760.686 322.437) rotate(-45.001)" fill="#116481"/>
      <rect id="Rectangle_236" data-name="Rectangle 236" width="29.816" height="6.246" transform="translate(760.685 339.102) rotate(-44.994)" fill="#116481"/>
    </g>
  </g>
</svg>
