<svg xmlns="http://www.w3.org/2000/svg" width="1050" height="322.92" viewBox="0 0 1050 322.92">
  <g id="Layer_2" data-name="Layer 2">
    <g id="Layer_1-2" data-name="Layer 1">
      <g>
        <polygon points="0 41.17 49.43 284.99 339.64 268.51 1011.81 294.88 1048.05 51.05 428.6 60.93 0 41.17" fill="#0098cd"/>
        <path d="M1050,322.92l-759.78-73L68.83,270,21,0,231,16.94,448.46,30.1,1005.8,13.52ZM290.25,241l.41,0L1039.56,313,998.09,22.68,448.32,39l-.2,0L230.4,25.84,31.79,9.83,76.19,260.4Z" fill="#ffcd34"/>
        <g>
          <g>
            <path d="M156.8,116.68q-3.77,1.41-8.91,3.4l-8.8,3.4q0-5.51-3.05-5.51-4.33,0-8.67,4.93c-2,2.42-2.9,4.77-2.58,7,.23,1.49,1.72,2.23,4.45,2.23a32.14,32.14,0,0,0,5.86-.7A43.85,43.85,0,0,1,144,130.4q9.84,0,11.49,6.8a20.74,20.74,0,0,1,.47,4.46q0,7.5-5.63,16.18A59.53,59.53,0,0,1,130,177a26.56,26.56,0,0,1-13.6,4.11,23.59,23.59,0,0,1-12-3.41q2.94-7,9.39-20.75a13.8,13.8,0,0,0,8,2.58,13.39,13.39,0,0,0,3.87-.59,30.94,30.94,0,0,0,6.92-2.69c3.12-1.72,4.69-3.48,4.69-5.28s-1.61-2.93-4.81-2.93a49.47,49.47,0,0,0-9.56,1.35,49.47,49.47,0,0,1-9.56,1.35,11.61,11.61,0,0,1-6.68-1.64q-4.56-3.06-3.75-9.5,1.53-13,16.77-30.14Q135.22,91.83,146.48,91q10.91-.72,10.9,16.41A82.84,82.84,0,0,1,156.8,116.68Z" fill="#fff"/>
            <path d="M116.35,184a26.6,26.6,0,0,1-13.45-3.8l-2.25-1.31,1-2.4c2-4.73,5.15-11.75,9.44-20.87l1-2a13.38,13.38,0,0,1-7.13-2.15c-2.72-1.82-5.86-5.46-5-12.3,1.1-9.35,6.82-19.74,17.5-31.73,11-12.44,20.46-18.78,28.84-19.39a11.69,11.69,0,0,1,9.09,3c3.36,3.15,5,8.52,5,16.42a86.87,86.87,0,0,1-.61,9.6l-.2,1.81-1.7.63q-3.75,1.4-8.88,3.39l-12.83,5v-4.33a7.37,7.37,0,0,0-.32-2.54c-1.94.11-4,1.42-6.22,3.92a6.76,6.76,0,0,0-1.9,4.19,21.59,21.59,0,0,0,6.85-.5,47.29,47.29,0,0,1,9.48-1.11c10.07,0,13.37,4.93,14.37,9.07a23.62,23.62,0,0,1,.55,5.15c0,5.56-2.05,11.55-6.1,17.79a62.71,62.71,0,0,1-21.39,20.06A29.61,29.61,0,0,1,116.35,184Zm-8.16-7.74c6.53,2.92,13.22,2.29,20.25-1.87a57.07,57.07,0,0,0,19.42-18.17c3.42-5.28,5.15-10.18,5.15-14.58a18,18,0,0,0-.39-3.82c-.29-1.18-1.09-4.47-8.6-4.47a41.32,41.32,0,0,0-8.31,1,34.85,34.85,0,0,1-6.47.76c-5.77,0-7.1-3-7.38-4.73-.44-3.17.65-6.31,3.24-9.4,3.51-4,7.17-6,10.94-6,1.41,0,4.28.5,5.48,4.36l5.3-2.05,7.22-2.77c.25-2.61.38-5,.38-7.13,0-6-1.08-10.18-3.13-12.1A5.83,5.83,0,0,0,146.67,94c-6.65.49-15,6.35-24.82,17.42-9.71,10.9-15.11,20.49-16,28.51-.52,4.13,1,5.74,2.46,6.69a9,9,0,0,0,5,1.14,47,47,0,0,0,8.94-1.28A52,52,0,0,1,132.41,145c7.21,0,7.77,4.51,7.77,5.89,0,4.45-4.69,7-6.23,7.88a33.92,33.92,0,0,1-7.61,3A16.32,16.32,0,0,1,115.1,161C112.2,167.25,109.88,172.36,108.19,176.28Zm6-22.65,1.21.83a10.34,10.34,0,0,0,9.31,1.59,28.84,28.84,0,0,0,6.37-2.46c2.18-1.21,2.85-2.07,3-2.45-.93-.27-4.86-.16-10.7,1.09A57.12,57.12,0,0,1,114.24,153.63Z" fill="#010101"/>
          </g>
          <g>
            <path d="M146.67,180.23a758.38,758.38,0,0,0,27.9-84.77l35.65-6q-6.1,35.53-5.51,84.07l-24.86,5.75,1.76-14.66-7.86,1.52-2.46,10.32Zm36.82-31.36,5.39-44.26h-.12l-11,45.37Z" fill="#fff"/>
            <path d="M142,183.94l1.88-4.79a761.57,761.57,0,0,0,27.8-84.44l.48-1.86,41.65-7-.7,4.11c-4,23.41-5.86,51.52-5.47,83.54l0,2.38-31.29,7.23,1.77-14.81-2,.39-2.48,10.4ZM177,98.06a761.82,761.82,0,0,1-25.66,78.47l17.58-2.68,2.45-10.23L185,161l-1.74,14.5,18.42-4.26c-.26-29.55,1.39-55.8,4.9-78.11Zm-3.18,55.71,12.66-52.13h5.68l-.29,3.32-5.64,46.4Z" fill="#010101"/>
          </g>
          <g>
            <path d="M264.11,91l-.71,21.8q-8.2.48-15.59,1.17a452.14,452.14,0,0,0-10.44,59.69l-19.81,5.16,10.79-62.38q-3.18.47-6.33,1l-6.22,1.18-1.41-21.93Z" fill="#fff"/>
            <path d="M213.86,182.85,224.72,120l-2.17.39-9.49,1.79-1.81-28.08,55.93-6.46-.9,27.94-2.7.16c-4.66.27-9.15.59-13.38,1A446.64,446.64,0,0,0,240.32,174l-.2,2.06ZM232,112.91,221.26,174.8l13.38-3.48a458.8,458.8,0,0,1,10.29-58l.49-2.06,2.11-.2c4.1-.39,8.46-.74,13-1L261,94.34l-43.51,5,1,15.77,2.93-.55c2.15-.4,4.29-.75,6.44-1.07Z" fill="#010101"/>
          </g>
          <g>
            <path d="M267.46,95.93l20.05-3.75q-8.08,30.72-12,55.1l11.14-4.68,8.21-46.67L315,92.18q-12.19,48.07-15.83,81.49l-18.76,5.16,2.35-13q-9.85,4.35-29.79,13Z" fill="#fff"/>
            <path d="M249.05,183.74,264.9,93.4l26.67-5-1.19,4.53c-4.77,18.1-8.47,34.73-11,49.54l4.7-2,8.29-47.09,26.62-5-1.14,4.5c-8.06,31.75-13.36,59-15.76,81.08l-.21,2-25.24,6.94,2.19-12.17q-9.36,4.11-24.69,10.78Zm37.56-22.88-2.5,13.86,12.29-3.38c2.4-20.89,7.29-46.22,14.55-75.4l-13.49,2.52-8.13,46.24-17.54,7.38.84-5.26c2.39-15.08,6-32.18,10.84-50.87L270,98.46l-13.23,75.45q16.17-7,24.72-10.81Z" fill="#010101"/>
          </g>
          <g>
            <path d="M320.06,95.81q18.4-5.5,30.14-5.51,15.82,0,15.71,11-.12,15.84-19.94,31.78,1.65,4.46,13.61,28-6.07,5.64-18.32,16.53l-12.49-32.36-.11,0-.16,0q-2.78,15.36-4.18,28.37l-18.56,5.17q.23-2.58,2.58-15.6Zm14.77,18.53c-.7,2.66-1.32,5.31-1.87,8l-1.64,8a42.73,42.73,0,0,0,8.09-5.52,22,22,0,0,0,6.1-7.62,4.12,4.12,0,0,0,.58-2c0-1.72-1.13-2.58-3.4-2.58A27,27,0,0,0,334.83,114.34Z" fill="#fff"/>
            <path d="M302.42,182.83l.39-4.27c.16-1.81,1-7,2.61-15.85l12-69.21,1.75-.53c23.51-7,39.52-7.68,46.21-.92a12.49,12.49,0,0,1,3.45,9.3c-.08,11-6.58,21.93-19.32,32.64,1.83,4.15,6.07,12.79,12.67,25.79l1,2-1.64,1.52q-6.07,5.64-18.36,16.57l-3.2,2.84L329.7,155.92c-1,6.38-1.83,12.42-2.43,18.05l-.21,2Zm20.25-84.69-11.41,65.6c-.93,5.15-1.53,8.65-1.92,11l12.26-3.41c.92-8.15,2.26-17.08,4-26.58l.51-2.83,2.49.38,1.93-.39,1,2.31,10.94,28.37q8.4-7.5,13.44-12.14c-7.47-14.75-11.64-23.38-12.73-26.34l-.73-2,1.66-1.33c12.42-10,18.75-19.91,18.82-29.49a6.75,6.75,0,0,0-1.73-5.09c-1.91-1.93-5.72-2.95-11-2.95C343.08,93.26,333.82,94.9,322.67,98.14Zm4.49,37.61,2.9-14c.56-2.71,1.19-5.42,1.91-8.13l.4-1.53,1.51-.52a29.26,29.26,0,0,1,8.81-1.92c4.69,0,6.36,2.87,6.36,5.55a7.12,7.12,0,0,1-.95,3.43c-1.07,2.58-3.32,5.43-6.74,8.42a45.8,45.8,0,0,1-8.69,5.91Zm10.14-19.1c-.53,2.09-1,4.17-1.44,6.26l-.23,1.11c.63-.48,1.24-1,1.86-1.5a19.25,19.25,0,0,0,5.28-6.52c.1-.18.17-.33.23-.45A17.43,17.43,0,0,0,337.3,116.65Z" fill="#010101"/>
          </g>
          <g>
            <path d="M370.43,95.81q13.49-4.45,22.87-4.45,10.54,0,16.06,5.51A26.43,26.43,0,0,1,417,116a38.82,38.82,0,0,1-1.05,8.68q-4.57,20.64-21.58,36.05t-37.87,18.12q.24-2.58,2.46-15.36l9.38-53.94Q370.31,97.46,370.43,95.81Zm16.77,19.35q-5.4,23-8.21,43.5a79.44,79.44,0,0,0,12.55-15.48q6.79-10.78,6.8-18.52Q398.34,114.69,387.2,115.16Z" fill="#fff"/>
            <path d="M353.2,182.24l.33-3.68c.16-1.8,1-6.9,2.5-15.6L365.4,109c1.63-9.85,2-12.74,2.08-13.42l.14-2L369.5,93c20.28-6.71,34.17-6,42,1.77A29.47,29.47,0,0,1,420,116a41.87,41.87,0,0,1-1.13,9.34c-3.17,14.28-10.73,26.93-22.48,37.59s-25,17-39.48,18.86Zm19.94-84.19c-.26,1.86-.8,5.31-1.89,12l-9.39,54q-1.28,7.35-1.9,11.29c11.76-2.28,22.64-7.9,32.4-16.76C403.18,148.7,410.14,137.1,413,124a36.31,36.31,0,0,0,1-8,23.37,23.37,0,0,0-6.79-17C401.47,93.17,389.88,92.78,373.14,98.05Zm1.77,68.58,1.15-8.37c1.88-13.71,4.65-28.44,8.25-43.78l.52-2.19,2.24-.09c4.75-.22,8.39.89,10.84,3.24,2.25,2.15,3.39,5.26,3.39,9.22,0,5.77-2.37,12.35-7.25,20.1a83.21,83.21,0,0,1-13,16.05Zm14.63-48.48c-2.49,10.86-4.57,21.38-6.19,31.43a83.32,83.32,0,0,0,5.68-8c4.21-6.69,6.35-12.39,6.35-17,0-2.29-.53-4-1.57-5A6.92,6.92,0,0,0,389.54,118.15Z" fill="#010101"/>
          </g>
          <g>
            <path d="M401.35,180.23a760.44,760.44,0,0,0,27.9-84.77l35.64-6q-6.09,35.53-5.5,84.07l-24.86,5.75,1.76-14.66-7.86,1.52L426,176.48Zm36.82-31.36,5.39-44.26h-.12l-11,45.37Z" fill="#fff"/>
            <path d="M396.71,183.94l1.88-4.79a759.36,759.36,0,0,0,27.79-84.44l.49-1.86,41.65-7L467.81,90c-4,23.41-5.85,51.52-5.46,83.54l0,2.38-31.3,7.23,1.78-14.81-2,.39-2.48,10.4Zm34.92-85.88A762,762,0,0,1,406,176.53l17.59-2.68L426,163.62,439.71,161,438,175.46l18.43-4.26c-.26-29.55,1.39-55.8,4.9-78.11Zm-3.18,55.71,12.66-52.13h5.67L446.5,105l-5.65,46.4Z" fill="#010101"/>
          </g>
          <g>
            <path d="M505.77,94.17l18.88,3.28q-25.33,44.44-40.1,80.44l-18.06-1.17,12.43-26.15-9.85-47.14,22.86-10.55q-.35,5.4-.46,13.48a123.42,123.42,0,0,0,.81,16.18Z" fill="#fff"/>
            <path d="M486.48,181l-24.54-1.59,13.87-29.19-10.12-48.47L495.21,88.1l-.32,5c-.23,3.61-.39,8.09-.46,13.33,0,1.56,0,3.12,0,4.68l9.61-20.22,25.25,4.4-2.09,3.66c-16.74,29.37-30.17,56.32-39.93,80.09ZM471,174l11.58.75C492,152.28,504.54,127,520,99.65l-12.52-2.18-17,35.68-1.19-10.26a128.28,128.28,0,0,1-.84-16.57c.05-3.17.12-6.08.23-8.7l-16.28,7.52,9.57,45.8Z" fill="#010101"/>
          </g>
          <g>
            <path d="M530.42,179.42A478.1,478.1,0,0,0,554.57,97.8l28-4.57-4,43,11-39.74,26.94-4.69a556.79,556.79,0,0,0-4.81,69v12.08l-23.92,4.22L592,125.71l-15.35,56.87-12.9,1.76,7.73-72.23-16.64,64Z" fill="#fff"/>
            <path d="M560.37,187.79l3.87-36.17-7.07,27.18L525.8,183l1.86-4.7a476.82,476.82,0,0,0,24-81.11l.41-2,33.83-5.52-1.26,13.4,2.54-9.18,32.74-5.69-.5,4a556.06,556.06,0,0,0-4.78,68.58v14.56l-30.16,5.33,1.88-22.78L579,185.25Zm8.22-76.43,5.81,1.07-7.34,68.46,7.21-1,14.84-55,5.82,1L591,173.48l17.69-3.12v-9.59a553.63,553.63,0,0,1,4.34-65.34l-21.16,3.68L581.42,137,575.61,136l3.67-39.19-22.22,3.62A483,483,0,0,1,535,175.81l17.44-2.35Z" fill="#010101"/>
          </g>
          <g>
            <path d="M660.64,87q12.42,0,17.59,13.83a44.42,44.42,0,0,1,2.69,15.72,72.22,72.22,0,0,1-2.46,17.82,84.32,84.32,0,0,1-15,30.25q-13,16.89-27.55,16.88-12.55,0-17.83-13.83a42.92,42.92,0,0,1-2.58-15.24,71.19,71.19,0,0,1,2.58-18.06A85.41,85.41,0,0,1,633,104Q646,87,660.64,87Zm-4.22,29.08q-6.45,0-13.13,10.55a57,57,0,0,0-7.51,16.3,31.82,31.82,0,0,0-1,7.62,12.56,12.56,0,0,0,2.34,7.86,9.06,9.06,0,0,0,7.51,3.39q6.55,0,11.84-6.91a35.19,35.19,0,0,0,6.09-13,43.47,43.47,0,0,0,.94-17.35Q662,116.1,656.42,116.1Z" fill="#fff"/>
            <path d="M635.9,184.49c-9.68,0-16.61-5.3-20.59-15.75a45.6,45.6,0,0,1-2.78-16.29,74,74,0,0,1,2.68-18.82,88.62,88.62,0,0,1,15.4-31.41c9.23-12,19.33-18.16,30-18.16,6.61,0,15.5,2.73,20.36,15.76a47.39,47.39,0,0,1,2.89,16.75,75.08,75.08,0,0,1-2.56,18.55,87.82,87.82,0,0,1-15.53,31.33C656.57,178.42,646.51,184.49,635.9,184.49ZM660.64,90c-8.76,0-17.28,5.33-25.32,15.84a82.81,82.81,0,0,0-14.38,29.32,68.19,68.19,0,0,0-2.48,17.31,40.07,40.07,0,0,0,2.38,14.19c3.06,8,8,11.92,15.06,11.92,8.68,0,17.16-5.29,25.2-15.73a81.78,81.78,0,0,0,14.49-29.2A69.26,69.26,0,0,0,678,116.57a41.33,41.33,0,0,0-2.51-14.67C672.46,93.88,667.62,90,660.64,90Zm-16.06,74.81a12,12,0,0,1-9.83-4.52,15.49,15.49,0,0,1-3-9.7,34.67,34.67,0,0,1,1.15-8.34A60.27,60.27,0,0,1,640.8,125c5.06-8,10.18-11.91,15.62-11.91,3.71,0,8.45,1.9,10,10.92a46.75,46.75,0,0,1-1,18.57,38.39,38.39,0,0,1-6.62,14.09C654.69,162.07,649.91,164.79,644.58,164.79Zm11.84-45.73c-3.16,0-6.83,3.17-10.63,9.17a54.43,54.43,0,0,0-7.14,15.48,28.32,28.32,0,0,0-1,6.86,9.6,9.6,0,0,0,1.73,6.05,6.07,6.07,0,0,0,5.16,2.24c3.43,0,6.53-1.88,9.48-5.75a32.28,32.28,0,0,0,5.58-11.94,40.84,40.84,0,0,0,.88-16.19C659.53,119.06,657.27,119.06,656.42,119.06Z" fill="#010101"/>
          </g>
          <g>
            <path d="M689,95.81q18.4-5.5,30.13-5.51,15.82,0,15.71,11-.1,15.84-19.93,31.78,1.65,4.46,13.6,28-6.06,5.64-18.32,16.53l-12.48-32.36-.12,0-.15,0q-2.79,15.36-4.18,28.37l-18.56,5.17q.23-2.58,2.57-15.6Zm14.77,18.53c-.7,2.66-1.33,5.31-1.87,8l-1.65,8a42.48,42.48,0,0,0,8.1-5.52c3-2.65,5.08-5.19,6.09-7.62a4.14,4.14,0,0,0,.59-2c0-1.72-1.14-2.58-3.4-2.58A26.94,26.94,0,0,0,703.74,114.34Z" fill="#fff"/>
            <path d="M671.33,182.83l.38-4.27c.17-1.81,1-7,2.62-15.85l12-69.21,1.76-.53c23.51-7,39.52-7.68,46.21-.92a12.49,12.49,0,0,1,3.45,9.3c-.09,11-6.58,21.93-19.32,32.64,1.82,4.15,6.07,12.79,12.66,25.79l1,2-1.63,1.52q-6.09,5.64-18.37,16.57l-3.19,2.84L698.6,155.92c-1,6.38-1.82,12.42-2.42,18.05l-.22,2Zm20.24-84.69-11.41,65.6c-.92,5.15-1.53,8.65-1.91,11l12.25-3.41c.93-8.15,2.27-17.08,4-26.58l.52-2.83,2.48.38,1.94-.39,1,2.31,10.95,28.37q8.4-7.5,13.44-12.14c-7.47-14.75-11.64-23.38-12.73-26.34l-.74-2,1.66-1.33c12.42-10,18.76-19.91,18.83-29.49a6.79,6.79,0,0,0-1.73-5.09c-1.91-1.93-5.72-2.95-11-2.95C712,93.26,702.73,94.9,691.57,98.14Zm4.5,37.61,2.89-14q.84-4.06,1.92-8.13l.4-1.53,1.51-.52a29.2,29.2,0,0,1,8.81-1.92c4.69,0,6.36,2.87,6.36,5.55a7.12,7.12,0,0,1-1,3.43c-1.07,2.58-3.32,5.43-6.75,8.42a45.42,45.42,0,0,1-8.68,5.91Zm10.13-19.1c-.52,2.09-1,4.17-1.43,6.26l-.23,1.11c.62-.48,1.24-1,1.85-1.5a19.17,19.17,0,0,0,5.29-6.52,4.45,4.45,0,0,0,.22-.45A17.47,17.47,0,0,0,706.2,116.65Z" fill="#010101"/>
          </g>
          <g>
            <path d="M741.69,96.28,762,92.18c-.16,2.42-.23,5.86-.23,10.32q0,15.94,1,28a63,63,0,0,0,1.76,11.14l8-45.73,20.17-3.75q-12.2,47-16,81.49l-18.52,5.16q-.12-.24-1.53-4.11l-6.09-17.35a50.62,50.62,0,0,1-1.76-5.39q-2.48,13.83-3.87,26.85l-18.76,5.63Z" fill="#fff"/>
            <path d="M722.46,188.68l16.66-94.9,26-5.27-.24,3.86c-.16,2.35-.23,5.75-.23,10.12,0,6.71.14,12.94.42,18.62L770,93.39l26.77-5-1.17,4.51C787.5,124,782.16,151.25,779.69,174l-.22,2-22.81,6.35-1.09-2.19c-.12-.22-.19-.37-1.66-4.41l-4.07-11.57c-.75,5.08-1.4,10.09-1.93,15l-.21,1.95Zm21.8-89.9L730,180.24l12.29-3.69c.92-8.12,2.16-16.55,3.68-25.09l5.83-.06a45.06,45.06,0,0,0,1.63,5l6.11,17.37c.2.56.38,1.06.55,1.5l14-3.89c2.47-21.49,7.39-46.83,14.64-75.41l-13.57,2.53-7.62,43.7-5.78.28a65.82,65.82,0,0,1-1.85-11.68c-.71-8.07-1.07-17.59-1.07-28.28q0-3.8.08-6.66Z" fill="#010101"/>
          </g>
          <g>
            <path d="M800.5,95.93l20.17-3.75q-12.2,47-15.95,81.49l-18.64,5.16Z" fill="#fff"/>
            <path d="M782.36,182.93l15.58-89.54,26.77-5-1.17,4.51c-8.06,31.05-13.4,58.33-15.87,81.07l-.22,2Zm20.71-84.46L789.8,174.72l12.2-3.37c2.47-21.5,7.39-46.83,14.64-75.41Z" fill="#010101"/>
          </g>
          <g>
            <path d="M828.48,96.28l20.28-4.1q-.24,3.63-.24,10.32,0,15.94,1.06,28a63,63,0,0,0,1.76,11.14l8-45.73,20.17-3.75q-12.19,47-16,81.49L845,178.83q-.12-.24-1.53-4.11l-6.09-17.35a50.62,50.62,0,0,1-1.76-5.39q-2.48,13.83-3.87,26.85L813,184.46Z" fill="#fff"/>
            <path d="M809.25,188.68l16.66-94.9L852,88.51l-.24,3.86c-.16,2.35-.23,5.75-.23,10.12,0,6.71.14,12.94.42,18.62l4.84-27.72,26.77-5-1.17,4.51C874.29,124,869,151.25,866.48,174l-.22,2-22.81,6.35-1.09-2.19c-.12-.22-.19-.37-1.66-4.41l-4.07-11.57c-.75,5.08-1.4,10.09-1.93,15l-.21,1.95ZM831,98.78l-14.3,81.46L829,176.55c.92-8.12,2.16-16.55,3.68-25.09l5.83-.06a45.06,45.06,0,0,0,1.63,5l6.11,17.37c.2.56.38,1.06.55,1.5l14-3.89c2.47-21.49,7.39-46.83,14.64-75.41l-13.57,2.53-7.62,43.7-5.78.28a65.82,65.82,0,0,1-1.85-11.68c-.71-8.07-1.07-17.59-1.07-28.28q0-3.8.08-6.66Z" fill="#010101"/>
          </g>
          <g>
            <path d="M892.1,181.52q-12.44,0-17.59-13.36a39.78,39.78,0,0,1-2.7-15,68.41,68.41,0,0,1,2.46-17.24,78.48,78.48,0,0,1,14.66-29.43q12.78-16.29,27.2-16.3,12.55,0,17.71,13.84l-13,14a7,7,0,0,0-6.21-3.16q-8,0-15,11a63.54,63.54,0,0,0-7.86,18.41,28.34,28.34,0,0,0-1,7.15,11.63,11.63,0,0,0,2.46,7.74,9.18,9.18,0,0,0,7.51,3.28q5.51,0,10.2-5a30.6,30.6,0,0,0,6.1-10.09q-8.69,1.77-16.07,3.64l3.72-17.19,31.12-6.68q.22,7.61-3.29,17.46a79.8,79.8,0,0,1-7.86,15.93Q910.87,181.52,892.1,181.52Z" fill="#fff"/>
            <path d="M892.1,184.49c-9.46,0-16.5-5.28-20.36-15.27a43,43,0,0,1-2.89-16.07,71.6,71.6,0,0,1,2.56-18,81.45,81.45,0,0,1,15.2-30.51c9.06-11.56,19-17.43,29.52-17.43,6.66,0,15.62,2.74,20.49,15.76l.64,1.72-16.82,18-2.08-3.12a4.06,4.06,0,0,0-3.75-1.85c-4.21,0-8.42,3.25-12.51,9.65A60.93,60.93,0,0,0,894.62,145a25.29,25.29,0,0,0-1,6.42,8.7,8.7,0,0,0,1.77,5.83,6.23,6.23,0,0,0,5.24,2.23c2.84,0,5.46-1.34,8-4.1a23.4,23.4,0,0,0,3-3.92c-3.49.77-6.85,1.56-10,2.36L897,155l5.13-23.74,36.46-7.82.11,3.55c.17,5.42-1,11.66-3.46,18.54A82.42,82.42,0,0,1,927.07,162C917.38,176.94,905.62,184.49,892.1,184.49Zm24-91.34c-8.61,0-17,5.1-24.87,15.16a75.63,75.63,0,0,0-14.11,28.33,65.71,65.71,0,0,0-2.38,16.51,37,37,0,0,0,2.49,13.9c3,7.76,7.84,11.51,14.84,11.51,11.54,0,21.36-6.46,30-19.74a76.76,76.76,0,0,0,7.56-15.33,52.13,52.13,0,0,0,3-12.75l-25.56,5.49-2.31,10.69c3.69-.88,7.57-1.73,11.58-2.54l5.29-1.07-1.94,5A33.58,33.58,0,0,1,913,159.4c-3.69,4-7.85,6-12.36,6a12.05,12.05,0,0,1-9.8-4.37,14.55,14.55,0,0,1-3.13-9.62,31.2,31.2,0,0,1,1.15-7.91,66.92,66.92,0,0,1,8.22-19.24c5.25-8.23,11.14-12.4,17.51-12.4a10.4,10.4,0,0,1,6.16,1.85l9.62-10.31C927.35,96.5,922.68,93.15,916.13,93.15Z" fill="#010101"/>
          </g>
        </g>
        <g>
          <g>
            <path d="M565.77,199.43Q577.16,196,584.43,196c6.62,0,9.87,2.31,9.78,6.91q-.23,13.89-23.37,28.74-1.62,9-2.36,16.6l-11.68,3.24q.23-1.62,1.77-9.85l3.23-17.42Q566.14,200.16,565.77,199.43ZM575,211.18c-.35,1.38-.67,2.75-1,4.12l-.81,4q6.84-3.37,8.82-7.13a2.21,2.21,0,0,0,.29-1c0-.84-.61-1.25-1.83-1.25A20.85,20.85,0,0,0,575,211.18Z" fill="#fff"/>
            <path d="M553.62,255.09l.55-4q.23-1.64,1.79-10l3.23-17.41c3.14-17.4,3.81-22.29,3.93-23.64L562,197.8l3-.91c15-4.54,25.13-4.86,29.52-.37a8.56,8.56,0,0,1,2.34,6.42c-.16,10.08-7.89,20-23.61,30.27-1,5.45-1.67,10.58-2.13,15.27l-.17,1.81Zm14.67-53.65c-.33,3-1.37,9.3-3.88,23.22l-3.24,17.43q-.64,3.43-1,5.7l5.91-1.64c.5-4.66,1.24-9.7,2.2-15l.2-1.13,1-.63c14.57-9.34,22-18.27,22.15-26.54a3.32,3.32,0,0,0-.82-2.61c-1-1-3.21-1.6-6.3-1.6C580.23,198.63,574.81,199.57,568.29,201.44Zm1.31,22.67,1.87-9.33c.31-1.43.63-2.84,1-4.24l.36-1.44,1.42-.45a22.77,22.77,0,0,1,6.31-1.29c3.1,0,4.49,2,4.49,3.9a4.72,4.72,0,0,1-.58,2.14c-1.63,3.09-4.9,5.79-10,8.32Zm7.64-10.82c0,.2-.09.41-.14.61.36-.28.67-.56.95-.82Z" fill="#010101"/>
          </g>
          <g>
            <path d="M596.5,199.43Q608,196,615.39,196q9.92,0,9.84,6.91-.08,9.92-12.49,19.91,1,2.81,8.52,17.57-3.79,3.52-11.48,10.36L602,230.44h-.17q-1.74,9.63-2.62,17.78l-11.64,3.24q.15-1.62,1.62-9.78ZM605.76,211c-.44,1.66-.84,3.33-1.18,5l-1,5a26.54,26.54,0,0,0,5.08-3.45,14,14,0,0,0,3.82-4.78,2.63,2.63,0,0,0,.36-1.25c0-1.07-.7-1.61-2.13-1.61A16.62,16.62,0,0,0,605.76,211Z" fill="#fff"/>
            <path d="M608.69,255.25l-5.82-15.08c-.43,2.91-.78,5.7-1.06,8.33l-.2,1.79-17.08,4.76.36-3.84c.11-1.18.65-4.45,1.65-10l7.63-43.85,1.57-.47c15.09-4.52,25.3-4.88,29.75-.38a8.61,8.61,0,0,1,2.4,6.4c-.06,7-4.07,13.91-11.94,20.67,1.24,2.73,3.81,7.95,7.68,15.58l.91,1.79-1.47,1.36q-3.83,3.54-11.52,10.39Zm-9.86-53.74-7.07,40.63c-.44,2.43-.76,4.27-1,5.66l6-1.66c.58-5,1.4-10.39,2.45-16.17l.47-2.58,2.18.37,1.72-.37.88,2.09,6.45,16.71c2.87-2.57,5.25-4.71,7.11-6.42-6-11.91-7.3-14.88-7.74-16.06l-.66-1.79,1.49-1.19c7.59-6.11,11.46-12.12,11.5-17.87a3.3,3.3,0,0,0-.86-2.62c-1-1.06-3.23-1.61-6.33-1.61C611.09,198.63,605.53,199.6,598.83,201.51Zm1,24.43L602,215.5c.35-1.71.75-3.43,1.2-5.14l.37-1.38,1.35-.45a18.82,18.82,0,0,1,5.77-1.24c3.53,0,4.79,2.29,4.79,4.26a5.14,5.14,0,0,1-.71,2.54,15.7,15.7,0,0,1-4.39,5.49,29.86,29.86,0,0,1-5.6,3.81ZM608,213.12c-.15.63-.3,1.26-.44,1.89a12.65,12.65,0,0,0,2-2.26C609.06,212.83,608.56,213,608,213.12Zm2.28-1.31,2.46.42-2.52-.82A1,1,0,0,0,610.24,211.81Z" fill="#010101"/>
          </g>
          <g>
            <path d="M650.75,193.91q7.79,0,11,8.68a27.82,27.82,0,0,1,1.68,9.85,45.23,45.23,0,0,1-1.54,11.17,52.88,52.88,0,0,1-9.4,18.95q-8.16,10.59-17.28,10.59-7.86,0-11.17-8.67a27,27,0,0,1-1.61-9.56,44.58,44.58,0,0,1,1.61-11.31,53.64,53.64,0,0,1,9.34-19Q641.56,193.92,650.75,193.91Zm-2.64,18.23q-4.05,0-8.23,6.61A35.6,35.6,0,0,0,635.17,229a19.93,19.93,0,0,0-.66,4.78,7.82,7.82,0,0,0,1.47,4.92,5.66,5.66,0,0,0,4.7,2.13c2.75,0,5.22-1.44,7.43-4.33a22.28,22.28,0,0,0,3.82-8.16,27.51,27.51,0,0,0,.59-10.88Q651.64,212.14,648.11,212.14Z" fill="#fff"/>
            <path d="M635.24,255.8c-4.42,0-10.37-1.8-13.64-10.38a29.55,29.55,0,0,1-1.79-10.5,47.34,47.34,0,0,1,1.7-12,56.48,56.48,0,0,1,9.79-20c5.94-7.76,12.48-11.7,19.45-11.7,4.39,0,10.3,1.81,13.51,10.4a30.46,30.46,0,0,1,1.85,10.78,48,48,0,0,1-1.62,11.82,55.86,55.86,0,0,1-9.87,19.92C648.67,251.89,642.16,255.8,635.24,255.8Zm15.51-59.24c-5.23,0-10.35,3.24-15.24,9.62a51,51,0,0,0-8.87,18.1,41.86,41.86,0,0,0-1.53,10.64,24.5,24.5,0,0,0,1.44,8.62c2.38,6.24,6.1,7,8.69,7,5.18,0,10.29-3.22,15.18-9.56a50.63,50.63,0,0,0,8.94-18,43,43,0,0,0,1.45-10.49,25.15,25.15,0,0,0-1.52-8.92C657,197.29,653.3,196.56,650.75,196.56Zm-10.07,46.89a8.33,8.33,0,0,1-6.78-3.13,10.48,10.48,0,0,1-2-6.57,22.58,22.58,0,0,1,.74-5.42,38.59,38.59,0,0,1,5-11c3.33-5.25,6.75-7.82,10.46-7.82,2.15,0,5.93,1,7,7.5a30.13,30.13,0,0,1-.63,12,24.72,24.72,0,0,1-4.29,9.12C647.49,241.64,644.28,243.45,640.68,243.45Zm7.43-28.66c-1.67,0-3.8,1.91-6,5.38a33.32,33.32,0,0,0-4.39,9.48,17.49,17.49,0,0,0-.57,4.1,5.22,5.22,0,0,0,.92,3.3,3,3,0,0,0,2.6,1.1c1.89,0,3.63-1.08,5.32-3.29a19.61,19.61,0,0,0,3.35-7.2,24.53,24.53,0,0,0,.54-9.84C649.39,214.79,648.42,214.79,648.11,214.79Z" fill="#010101"/>
          </g>
          <g>
            <path d="M670.09,199.43a47,47,0,0,1,14.33-2.8q6.62,0,10.07,3.46a16.53,16.53,0,0,1,4.78,12,24.22,24.22,0,0,1-.66,5.43,42.53,42.53,0,0,1-13.52,22.61,43.08,43.08,0,0,1-23.74,11.35q.15-1.62,1.54-9.63L668.77,208C669.6,203,670,200.11,670.09,199.43Zm10.51,12.12q-3.37,14.4-5.14,27.27a49.61,49.61,0,0,0,7.86-9.7c2.85-4.51,4.26-8.38,4.26-11.62Q687.58,211.26,680.6,211.55Z" fill="#fff"/>
            <path d="M658.4,254.51l.31-3.3c.11-1.17.62-4.39,1.57-9.83l5.88-33.81c1.1-6.7,1.27-8.06,1.29-8.34l.13-1.77,1.68-.55c13.06-4.32,22-3.8,27.11,1.3a19.25,19.25,0,0,1,5.55,13.86,26.66,26.66,0,0,1-.73,6,45.24,45.24,0,0,1-14.32,24,45.85,45.85,0,0,1-25.18,12Zm14.11-53.07c-.19,1.27-.52,3.39-1.12,7l-5.88,33.83c-.46,2.6-.78,4.52-1,5.92a37.8,37.8,0,0,0,7.33-2.45l1-7.3c1.19-8.62,2.93-17.88,5.19-27.52l.46-1.95,2-.09c3.19-.14,5.68.62,7.37,2.25a8.41,8.41,0,0,1,2.38,6.35c0,3.79-1.53,8.05-4.68,13a52.59,52.59,0,0,1-8.27,10.21l-5.16,4.89a44.06,44.06,0,0,0,11.18-7.49A40.11,40.11,0,0,0,696,216.93a21.7,21.7,0,0,0,.6-4.86,13.88,13.88,0,0,0-4-10.13C689.28,198.63,682.4,198.4,672.51,201.44Zm10.18,12.87c-1.23,5.4-2.3,10.67-3.18,15.75.54-.76,1.06-1.54,1.57-2.35,2.56-4.06,3.85-7.49,3.85-10.21a3.45,3.45,0,0,0-.74-2.52A2.93,2.93,0,0,0,682.69,214.31Z" fill="#010101"/>
          </g>
          <g>
            <path d="M706.49,199.5l12.56-2.35q-5.06,19.24-7.49,34.54l7-2.94,5.15-29.25,12.56-2.35q-7.65,30.12-9.92,51.07l-11.76,3.24L716,243.3q-6.16,2.72-18.66,8.16Z" fill="#fff"/>
            <path d="M693.91,255.86l10.28-58.63,18.49-3.46-.89,3.39,18.05-3.38-1,4c-5,19.88-8.36,36.94-9.85,50.71l-.2,1.79-17.55,4.83,1.33-7.4-14.12,6.16Zm25.62-17-1.6,8.93,6-1.65a382,382,0,0,1,8.77-45.63L726,201.77l-5.08,28.86L708.19,236l.75-4.72c1.45-9.12,3.63-19.45,6.5-30.75l-6.66,1.25-7.94,45.29q9.13-4,14.13-6.19Zm1.06-37.06c-2.35,9.23-4.23,17.8-5.62,25.57l1.21-.5Z" fill="#010101"/>
          </g>
          <g>
            <path d="M759.64,195.9q7.64,0,11.24,8.3l-8.3,9.12a5.26,5.26,0,0,0-3.9-1.77q-3.9,0-8.08,6.69a32.3,32.3,0,0,0-4.48,10.29,18.47,18.47,0,0,0-.52,4.11q0,4.94,3.6,6.76a5.41,5.41,0,0,0,2.5.59q3.82,0,8-5.65l2.35,8.74q-7.27,8.08-14.77,8.08-7.65,0-11.17-8.08A25.18,25.18,0,0,1,734,232.57a40.59,40.59,0,0,1,1.1-9,45.67,45.67,0,0,1,8.38-17.86Q750.9,195.91,759.64,195.9Z" fill="#fff"/>
            <path d="M747.29,253.81c-4.28,0-10.11-1.67-13.6-9.67a27.85,27.85,0,0,1-2.35-11.57,43.55,43.55,0,0,1,1.16-9.63,48.67,48.67,0,0,1,8.86-18.88c5.45-7.17,11.6-10.81,18.28-10.81,4.28,0,10.12,1.71,13.67,9.9l.68,1.57L762.63,217.2l-2-2a2.57,2.57,0,0,0-2-1c-1.54,0-3.67,2-5.84,5.45a30.39,30.39,0,0,0-4.13,9.44,15.86,15.86,0,0,0-.46,3.55c0,2.93,1.15,3.89,2.16,4.4,1.74.87,4.34-.46,7.17-4.28l3.26-4.41L765,243.79l-1,1.07C758.68,250.8,753.05,253.81,747.29,253.81Zm12.35-55.26c-5,0-9.6,2.86-14.06,8.72a43.21,43.21,0,0,0-7.9,16.84,38.06,38.06,0,0,0-1,8.46,22.83,22.83,0,0,0,1.89,9.42c2,4.46,4.73,6.52,8.76,6.52,3.87,0,7.85-2.07,11.83-6.16l-.7-2.61c-3.47,3.06-7.23,3.63-10.41,2-2.32-1.18-5.06-3.71-5.06-9.13a21.06,21.06,0,0,1,.58-4.7,35.58,35.58,0,0,1,4.82-11.11c3.34-5.34,6.72-7.93,10.33-7.93a7.66,7.66,0,0,1,3.55.86l5.48-6C765.79,200.21,763.19,198.55,759.64,198.55Z" fill="#010101"/>
          </g>
          <g>
            <path d="M802.27,196.41l-.44,13.67c-3.42.2-6.69.44-9.77.74a282.63,282.63,0,0,0-6.54,37.4l-12.42,3.24,6.76-39.1c-1.32.2-2.65.42-4,.66l-3.89.74L771.11,200Z" fill="#fff"/>
            <path d="M769.79,255.06l6.82-39.47-.24,0-6.83,1.29-1.23-19.25L805,193.43l-.61,19.16-2.42.14q-4.05.24-7.79.55a280,280,0,0,0-6.05,35.21l-.18,1.83ZM783.1,209.2l-6.69,38.65,6.66-1.73a292.56,292.56,0,0,1,6.41-35.92l.44-1.84,1.89-.18c2.38-.23,4.87-.43,7.45-.6l.27-8.18-25.61,3,.53,8.24.95-.18c1.36-.25,2.72-.48,4.07-.68Z" fill="#010101"/>
          </g>
          <g>
            <path d="M807.28,199.5l12.64-2.35q-7.63,29.46-10,51.07l-11.68,3.24Z" fill="#fff"/>
            <path d="M794.91,255.13,805,197.23l18.55-3.45-1,4c-5,19.43-8.38,36.49-9.92,50.7l-.2,1.79Zm14.67-53.36-8,46,5.92-1.64a363.56,363.56,0,0,1,8.83-45.64Z" fill="#010101"/>
          </g>
          <g>
            <path d="M846,193.91q7.79,0,11,8.68a27.6,27.6,0,0,1,1.69,9.85,45.23,45.23,0,0,1-1.54,11.17,52.74,52.74,0,0,1-9.41,18.95q-8.16,10.59-17.27,10.59-7.86,0-11.17-8.67a27,27,0,0,1-1.62-9.56,44.62,44.62,0,0,1,1.62-11.31,53.47,53.47,0,0,1,9.34-19Q836.84,193.92,846,193.91Zm-2.65,18.23q-4,0-8.23,6.61a35.83,35.83,0,0,0-4.7,10.22,19.93,19.93,0,0,0-.66,4.78,7.82,7.82,0,0,0,1.47,4.92,5.65,5.65,0,0,0,4.7,2.13c2.74,0,5.22-1.44,7.42-4.33a22,22,0,0,0,3.82-8.16,27.33,27.33,0,0,0,.59-10.88C847.2,213.9,845.74,212.14,843.38,212.14Z" fill="#fff"/>
            <path d="M830.52,255.8c-4.42,0-10.37-1.8-13.65-10.38a29.55,29.55,0,0,1-1.79-10.5,47.38,47.38,0,0,1,1.71-12,56.31,56.31,0,0,1,9.79-20c5.94-7.76,12.48-11.7,19.45-11.7,4.39,0,10.3,1.81,13.51,10.4a30.46,30.46,0,0,1,1.85,10.78,48.43,48.43,0,0,1-1.62,11.82,55.71,55.71,0,0,1-9.88,19.92C844,251.89,837.43,255.8,830.52,255.8ZM846,196.56c-5.23,0-10.36,3.24-15.24,9.62a51,51,0,0,0-8.87,18.1,41.86,41.86,0,0,0-1.53,10.64,24.27,24.27,0,0,0,1.44,8.62c2.38,6.24,6.1,7,8.69,7,5.18,0,10.29-3.22,15.17-9.56a50.46,50.46,0,0,0,8.94-18,42.51,42.51,0,0,0,1.46-10.49,25.15,25.15,0,0,0-1.52-8.92C852.24,197.29,848.58,196.56,846,196.56ZM836,243.45a8.32,8.32,0,0,1-6.78-3.13,10.48,10.48,0,0,1-2-6.57,22.53,22.53,0,0,1,.73-5.42,38.63,38.63,0,0,1,5.06-11c3.32-5.25,6.75-7.82,10.45-7.82,2.16,0,5.94,1,7,7.5a30.13,30.13,0,0,1-.64,12,24.71,24.71,0,0,1-4.28,9.12C842.77,241.64,839.56,243.45,836,243.45Zm7.42-28.66c-1.66,0-3.79,1.91-6,5.38a33.55,33.55,0,0,0-4.38,9.48,17,17,0,0,0-.57,4.1,5.22,5.22,0,0,0,.92,3.3,3,3,0,0,0,2.6,1.1c1.89,0,3.62-1.08,5.31-3.29a19.46,19.46,0,0,0,3.36-7.2,24.9,24.9,0,0,0,.54-9.84C844.66,214.79,843.7,214.79,843.38,214.79Z" fill="#010101"/>
          </g>
          <g>
            <path d="M866.84,199.72l12.72-2.57q-.15,2.28-.15,6.46,0,10,.66,17.57a38.93,38.93,0,0,0,1.1,7l5-28.66,12.64-2.35q-7.63,29.46-10,51.07l-11.61,3.24c-.05-.1-.36-1-1-2.57L872.43,238a34,34,0,0,1-1.11-3.38q-1.53,8.67-2.42,16.83L857.14,255Z" fill="#fff"/>
            <path d="M853.78,258.76l10.76-61.28,17.89-3.62-.23,3.46q-.13,2.22-.14,6.29,0,2,0,3.87l1.78-10.25,18.56-3.45-1,4c-5,19.43-8.38,36.48-9.93,50.7l-.19,1.79-15.42,4.29-1-1.91c-.06-.11-.43-1.07-1.09-2.89l-1.47-4.19q-.43,3.12-.75,6.14l-.19,1.75ZM869.14,202l-8.65,49.25,6-1.79c.57-4.91,1.33-10,2.25-15.26l5.22,0a26.22,26.22,0,0,0,1,3l3.83,10.9.09.24,7.54-2.1a365.24,365.24,0,0,1,8.84-45.64l-6.75,1.26-4.68,26.85-5.17.25a41.16,41.16,0,0,1-1.19-7.47c-.45-5.06-.67-11.05-.67-17.79,0-1.17,0-2.24,0-3.2Z" fill="#010101"/>
          </g>
          <g>
            <path d="M930.35,212.51l-5.58,2.13-5.52,2.13c0-2.3-.63-3.45-1.9-3.45-1.82,0-3.63,1-5.44,3.08a5.64,5.64,0,0,0-1.62,4.41c.15.93,1.08,1.4,2.79,1.4a20.72,20.72,0,0,0,3.68-.44,27.67,27.67,0,0,1,5.58-.66q6.18,0,7.2,4.26a12.56,12.56,0,0,1,.3,2.79q0,4.71-3.53,10.14a37.25,37.25,0,0,1-12.79,12,16.58,16.58,0,0,1-8.52,2.57,14.79,14.79,0,0,1-7.5-2.13q1.85-4.41,5.88-13a8.74,8.74,0,0,0,5,1.61,8.38,8.38,0,0,0,2.42-.37,19.07,19.07,0,0,0,4.34-1.69c2-1.07,2.94-2.18,2.94-3.3s-1-1.84-3-1.84a30.53,30.53,0,0,0-6,.85,31.23,31.23,0,0,1-6,.84,7.2,7.2,0,0,1-4.19-1c-1.91-1.27-2.69-3.26-2.35-5.95q.94-8.16,10.51-18.89,9.77-11,16.83-11.54,6.83-.43,6.83,10.29A50.86,50.86,0,0,1,930.35,212.51Z" fill="#fff"/>
            <path d="M905,255.5a17.39,17.39,0,0,1-8.83-2.49l-2-1.16.89-2.15c1.24-3,3.24-7.38,5.93-13.11l.12-.25a8.36,8.36,0,0,1-3.72-1.37c-1.88-1.26-4.06-3.78-3.46-8.47.7-6,4.35-12.67,11.15-20.31,7.06-8,13.15-12,18.62-12.42a8.22,8.22,0,0,1,6.3,2.06c2.28,2.13,3.38,5.69,3.38,10.87a54.2,54.2,0,0,1-.38,6.1l-.18,1.62-1.52.57c-1.57.59-3.42,1.29-5.57,2.12l-3.47,1.35c7.36.06,9.3,3.93,9.87,6.29a15.56,15.56,0,0,1,.37,3.41c0,3.64-1.33,7.54-4,11.58a40.17,40.17,0,0,1-13.67,12.83A19.4,19.4,0,0,1,905,255.5Zm-4.06-6.06c3.58,1.36,7.29.9,11.23-1.44a34.8,34.8,0,0,0,11.91-11.13c2.06-3.18,3.11-6.11,3.11-8.71a10.64,10.64,0,0,0-.23-2.22c-.15-.62-.53-2.18-4.62-2.18a25.14,25.14,0,0,0-5,.6,22.58,22.58,0,0,1-4.22.5c-4.36,0-5.24-2.54-5.41-3.63a8.24,8.24,0,0,1,2.2-6.53c2.38-2.7,4.87-4,7.48-4a4.19,4.19,0,0,1,3.88,2.51l2.58-1,4.07-1.56c.13-1.44.19-2.75.19-3.91,0-4.7-1.07-6.4-1.71-7a2.76,2.76,0,0,0-2.3-.64c-2.71.2-7.53,2.21-15,10.65-6,6.71-9.29,12.57-9.86,17.44-.27,2.15.45,2.94,1.19,3.44a5,5,0,0,0,2.72.58,27.85,27.85,0,0,0,5.43-.79,33.26,33.26,0,0,1,6.55-.9c5.39,0,5.66,3.74,5.66,4.49,0,2.16-1.45,4.05-4.31,5.63a21.89,21.89,0,0,1-5,1.93,11,11,0,0,1-6.84-.21Q902.37,246.15,900.94,249.44Zm5.18-13.22a5.5,5.5,0,0,0,3.94.2,17.21,17.21,0,0,0,3.83-1.48l.18-.11a39.67,39.67,0,0,0-4.44.74C908.32,235.85,907.15,236.07,906.12,236.22Zm9.88-1.34Zm-3-15.32a20.55,20.55,0,0,0,3.22-.4l.35-.07v-2.32c0-.27,0-.49,0-.67a7.06,7.06,0,0,0-2.68,2.05A4.82,4.82,0,0,0,913,219.56Z" fill="#010101"/>
          </g>
        </g>
      </g>
    </g>
  </g>
</svg>
