<svg id="Group_129" data-name="Group 129" xmlns="http://www.w3.org/2000/svg" width="1920" height="450" viewBox="0 0 1920 450">
  <rect id="Rectangle_237" data-name="Rectangle 237" width="1920" height="450" fill="#aebfc9"/>
  <g id="Group_116" data-name="Group 116">
    <path id="Path_176" data-name="Path 176" d="M352.384,353.049V321.491h2.084v31.558a21.163,21.163,0,0,0,21.139,21.14h303.91v2.084H375.607A23.25,23.25,0,0,1,352.384,353.049Z" fill="#eff2f9"/>
    <path id="Path_177" data-name="Path 177" d="M685.681,375.231a6.165,6.165,0,1,0-6.164,6.165A6.165,6.165,0,0,0,685.681,375.231Z" fill="#eff2f9"/>
    <path id="Path_178" data-name="Path 178" d="M353.426,328.523a6.165,6.165,0,1,1,6.165-6.164A6.165,6.165,0,0,1,353.426,328.523Z" fill="#eff2f9"/>
  </g>
  <g id="Group_117" data-name="Group 117">
    <path id="Path_179" data-name="Path 179" d="M1450.749,217.274V240h1.5V217.274a15.241,15.241,0,0,1,15.224-15.224h218.872v-1.5H1467.474A16.744,16.744,0,0,0,1450.749,217.274Z" fill="#eff2f9"/>
    <path id="Path_180" data-name="Path 180" d="M1690.786,201.3a4.44,4.44,0,1,1-4.44-4.44A4.44,4.44,0,0,1,1690.786,201.3Z" fill="#eff2f9"/>
    <path id="Path_181" data-name="Path 181" d="M1451.5,234.938a4.439,4.439,0,1,0,4.44,4.439A4.439,4.439,0,0,0,1451.5,234.938Z" fill="#eff2f9"/>
  </g>
  <g id="Group_118" data-name="Group 118">
    <rect id="Rectangle_238" data-name="Rectangle 238" width="247.094" height="7.988" transform="translate(913.078 324.529)" fill="#58a7d4"/>
    <rect id="Rectangle_239" data-name="Rectangle 239" width="8.353" height="7.988" transform="translate(1172.491 324.529)" fill="#58a7d4"/>
  </g>
  <g id="Group_119" data-name="Group 119">
    <path id="Path_182" data-name="Path 182" d="M450.379,300.011l18.46-9.509v2.746l-15.555,7.8v.08l15.555,7.8v2.745l-18.46-9.509Z" fill="#eff2f9"/>
    <path id="Path_183" data-name="Path 183" d="M471.427,315.259l11.1-28.844h2.7l-11.139,28.844Z" fill="#eff2f9"/>
    <path id="Path_184" data-name="Path 184" d="M506.2,302.2l-18.46,9.469v-2.745l15.675-7.8v-.08l-15.675-7.8V290.5l18.46,9.469Z" fill="#eff2f9"/>
  </g>
  <g id="Group_120" data-name="Group 120">
    <rect id="Rectangle_240" data-name="Rectangle 240" width="55.527" height="16.363" rx="3.75" transform="translate(569.057 206.071)" fill="#116481"/>
    <rect id="Rectangle_241" data-name="Rectangle 241" width="94.499" height="16.363" rx="3.75" transform="translate(569.057 234.933)" fill="#116481"/>
    <rect id="Rectangle_242" data-name="Rectangle 242" width="40.373" height="16.363" rx="3.75" transform="translate(569.057 263.794)" fill="#116481"/>
    <rect id="Rectangle_243" data-name="Rectangle 243" width="20.261" height="16.363" rx="3.75" transform="translate(620.834 263.794)" fill="#116481"/>
    <rect id="Rectangle_244" data-name="Rectangle 244" width="80.863" height="16.363" rx="3.75" transform="translate(569.057 292.656)" fill="#116481"/>
    <rect id="Rectangle_245" data-name="Rectangle 245" width="32.897" height="16.363" rx="3.75" transform="translate(663.555 292.656)" fill="#116481"/>
  </g>
  <path id="Path_185" data-name="Path 185" d="M831.1,393.316h-4.154a18.455,18.455,0,0,0-11.513-15.262h0c.07-.792.112-1.592.112-2.4a27.043,27.043,0,0,0-53.8-3.913h0a27.059,27.059,0,0,0-21.607,21.576h-5.284a8.438,8.438,0,0,0,0,16.876H831.1a8.438,8.438,0,0,0,0-16.876Z" fill="#5089ab"/>
  <g id="Group_121" data-name="Group 121">
    <path id="Path_186" data-name="Path 186" d="M1148.182,197.414a6.905,6.905,0,1,1-6.905-6.9A6.906,6.906,0,0,1,1148.182,197.414Z" fill="#eff2f9"/>
    <path id="Path_187" data-name="Path 187" d="M1311.448,353.839a6.905,6.905,0,1,1-6.905-6.9A6.9,6.9,0,0,1,1311.448,353.839Z" fill="#eff2f9"/>
    <path id="Path_188" data-name="Path 188" d="M1141.277,196.08v2.334h123.051V355.006h40.216v-2.334h-37.882V196.08Z" fill="#eff2f9"/>
  </g>
  <g id="Group_123" data-name="Group 123">
    <rect id="Rectangle_246" data-name="Rectangle 246" width="164.401" height="201.826" rx="19.143" transform="translate(82.111 190.302)" fill="#0098cc"/>
    <rect id="Rectangle_247" data-name="Rectangle 247" width="164.401" height="201.826" rx="19.143" transform="translate(96.743 190.302)" fill="#e1e7f4"/>
    <g id="Group_122" data-name="Group 122">
      <rect id="Rectangle_248" data-name="Rectangle 248" width="92.96" height="15.924" rx="3.443" transform="translate(115.014 215.255)" fill="#58a7d4"/>
      <rect id="Rectangle_249" data-name="Rectangle 249" width="86.934" height="15.924" rx="3.443" transform="translate(115.014 249.254)" fill="#58a7d4"/>
      <rect id="Rectangle_250" data-name="Rectangle 250" width="71.011" height="15.924" rx="3.443" transform="translate(115.014 283.253)" fill="#58a7d4"/>
      <rect id="Rectangle_251" data-name="Rectangle 251" width="45.189" height="15.924" rx="3.443" transform="translate(115.014 317.252)" fill="#58a7d4"/>
      <rect id="Rectangle_252" data-name="Rectangle 252" width="92.96" height="15.924" rx="3.443" transform="translate(115.014 351.251)" fill="#58a7d4"/>
    </g>
  </g>
  <rect id="Rectangle_253" data-name="Rectangle 253" width="1.764" height="189.372" transform="translate(1744.968 206.02)" fill="#eff2f9"/>
  <rect id="Rectangle_254" data-name="Rectangle 254" width="53.094" height="22.385" rx="3.767" transform="translate(1719.303 190.302)" fill="#58a7d4"/>
  <rect id="Rectangle_255" data-name="Rectangle 255" width="53.094" height="22.385" rx="3.767" transform="translate(1719.303 389.433)" fill="#58a7d4"/>
  <rect id="Rectangle_256" data-name="Rectangle 256" width="53.094" height="22.385" rx="3.767" transform="translate(1719.303 321.884)" fill="#116481"/>
  <path id="Path_189" data-name="Path 189" d="M1816.435,373.211H1745.85v-1.764h68.82V263.763H1698.9V262h117.534Z" fill="#eff2f9"/>
  <rect id="Rectangle_257" data-name="Rectangle 257" width="45.56" height="19.209" rx="3.232" transform="translate(1792.772 253.276)" fill="#116481"/>
  <rect id="Rectangle_258" data-name="Rectangle 258" width="45.56" height="19.209" rx="3.232" transform="translate(1662.934 253.276)" fill="#116481"/>
  <rect id="Rectangle_259" data-name="Rectangle 259" width="32.177" height="32.177" transform="translate(1723.097 262.88) rotate(-45)" fill="#58a7d4"/>
  <g id="Group_124" data-name="Group 124">
    <rect id="Rectangle_260" data-name="Rectangle 260" width="141.627" height="173.868" rx="16.491" transform="translate(965.812 111.48)" fill="#e1e7f4"/>
    <path id="Path_190" data-name="Path 190" d="M976.934,138.214V268.857a5.375,5.375,0,0,0,5.369,5.368h108.645a5.374,5.374,0,0,0,5.368-5.368V138.214Z" fill="#0098cc"/>
    <circle id="Ellipse_46" data-name="Ellipse 46" cx="5.19" cy="5.19" r="5.19" transform="translate(980.067 125.609) rotate(-45)" fill="#002734"/>
    <circle id="Ellipse_47" data-name="Ellipse 47" cx="5.19" cy="5.19" r="5.19" transform="translate(997.776 126.807) rotate(-54.392)" fill="#116481"/>
    <circle id="Ellipse_48" data-name="Ellipse 48" cx="5.19" cy="5.19" r="5.19" transform="translate(1015.852 122.787) rotate(-22.392)" fill="#0098cc"/>
    <rect id="Rectangle_261" data-name="Rectangle 261" width="29.135" height="6.921" transform="translate(987.129 153.472)" fill="#82b8dc"/>
    <rect id="Rectangle_262" data-name="Rectangle 262" width="62.008" height="6.921" transform="translate(987.129 167.554)" fill="#82b8dc"/>
    <rect id="Rectangle_263" data-name="Rectangle 263" width="24.439" height="6.921" transform="translate(1056.583 167.554)" fill="#116481"/>
    <rect id="Rectangle_264" data-name="Rectangle 264" width="17.889" height="6.921" transform="translate(987.129 181.636)" fill="#5089ab"/>
    <rect id="Rectangle_265" data-name="Rectangle 265" width="20.268" height="6.921" transform="translate(1012.804 181.636)" fill="#58a7d4"/>
    <rect id="Rectangle_266" data-name="Rectangle 266" width="38.154" height="6.921" transform="translate(1036.625 181.636)" fill="#82b8dc"/>
    <rect id="Rectangle_267" data-name="Rectangle 267" width="29.135" height="6.921" transform="translate(987.129 195.718)" fill="#aacce6"/>
    <rect id="Rectangle_268" data-name="Rectangle 268" width="16.159" height="6.921" transform="translate(1003.566 209.801)" fill="#82b8dc"/>
    <rect id="Rectangle_269" data-name="Rectangle 269" width="36.38" height="6.921" transform="translate(1024.621 209.801)" fill="#58a7d4"/>
    <rect id="Rectangle_270" data-name="Rectangle 270" width="16.359" height="6.921" transform="translate(1067.381 209.801)" fill="#116481"/>
    <rect id="Rectangle_271" data-name="Rectangle 271" width="24.253" height="6.921" transform="translate(1003.566 223.883)" fill="#5089ab"/>
    <rect id="Rectangle_272" data-name="Rectangle 272" width="9.55" height="6.921" transform="translate(1031.06 223.883)" fill="#116481"/>
    <rect id="Rectangle_273" data-name="Rectangle 273" width="18.834" height="6.921" transform="translate(1045.627 223.883)" fill="#82b8dc"/>
    <rect id="Rectangle_274" data-name="Rectangle 274" width="12.037" height="6.921" transform="translate(1069.542 223.883)" fill="#82b8dc"/>
    <rect id="Rectangle_275" data-name="Rectangle 275" width="16.159" height="6.921" transform="translate(1003.566 237.965)" fill="#82b8dc"/>
    <rect id="Rectangle_276" data-name="Rectangle 276" width="16.159" height="6.921" transform="translate(1024.992 237.965)" fill="#5089ab"/>
    <rect id="Rectangle_277" data-name="Rectangle 277" width="29.135" height="6.921" transform="translate(987.129 252.048)" fill="#aacce6"/>
  </g>
  <g id="Group_125" data-name="Group 125">
    <path id="Path_191" data-name="Path 191" d="M956.982,383.044,972,375.308v2.233l-12.655,6.344v.065L972,390.294v2.234l-15.018-7.736Z" fill="#eff2f9"/>
    <path id="Path_192" data-name="Path 192" d="M976.5,369.546h2.848v9.776h.065a5.289,5.289,0,0,1,2.039-2.007,5.86,5.86,0,0,1,2.913-.81c2.1,0,5.47,1.3,5.47,6.7v9.322h-2.848v-9c0-2.525-.939-4.662-3.625-4.662a4.1,4.1,0,0,0-3.82,2.849,3.448,3.448,0,0,0-.194,1.36v9.451H976.5Z" fill="#eff2f9"/>
    <path id="Path_193" data-name="Path 193" d="M997.764,372.362v4.5h4.078v2.168h-4.078v8.448c0,1.943.55,3.044,2.136,3.044a6.332,6.332,0,0,0,1.651-.2l.129,2.136a6.958,6.958,0,0,1-2.524.389,3.95,3.95,0,0,1-3.076-1.2c-.809-.841-1.1-2.233-1.1-4.079V379.03h-2.427v-2.168h2.427v-3.755Z" fill="#eff2f9"/>
    <path id="Path_194" data-name="Path 194" d="M1005.046,381.1c0-1.619-.032-2.946-.129-4.24h2.492l.129,2.525h.1a5.4,5.4,0,0,1,4.92-2.882,4.633,4.633,0,0,1,4.434,3.14h.065a6.439,6.439,0,0,1,1.748-2.038,5.345,5.345,0,0,1,3.463-1.1c2.071,0,5.147,1.36,5.147,6.8v9.225h-2.784v-8.869c0-3.01-1.1-4.822-3.4-4.822a3.685,3.685,0,0,0-3.366,2.589,4.7,4.7,0,0,0-.227,1.423v9.679h-2.783v-9.387c0-2.492-1.1-4.3-3.269-4.3a3.9,3.9,0,0,0-3.529,2.847,3.95,3.95,0,0,0-.226,1.393v9.451h-2.784Z" fill="#eff2f9"/>
    <path id="Path_195" data-name="Path 195" d="M1032.04,369.546h2.849v22.982h-2.849Z" fill="#eff2f9"/>
    <path id="Path_196" data-name="Path 196" d="M1054.471,384.824l-15.019,7.7v-2.234l12.753-6.344v-.065l-12.753-6.344v-2.233l15.019,7.7Z" fill="#eff2f9"/>
  </g>
  <g id="Group_126" data-name="Group 126">
    <path id="Path_197" data-name="Path 197" d="M386.493,237.18a29.58,29.58,0,0,0-1.535-3.16l1.755-10.176-10.651-8.208-9.4,4.295a29.363,29.363,0,0,0-6.947-.937l-7.931-6.6L339.35,217.51l-.98,10.274a29.359,29.359,0,0,0-4.273,5.557l-9.7,3.571-1.782,13.328,8.412,5.989a28.435,28.435,0,0,0,2.671,6.484l-1.755,10.177L342.6,281.1,352,276.8a29.364,29.364,0,0,0,6.946.937l7.931,6.6,12.434-5.12.98-10.275a29.394,29.394,0,0,0,4.272-5.557l9.7-3.571,1.782-13.328-8.412-5.989A29.491,29.491,0,0,0,386.493,237.18Zm-20.239,28a18.187,18.187,0,1,1,9.891-23.742A18.207,18.207,0,0,1,366.254,265.183Z" fill="#116481"/>
    <path id="Path_198" data-name="Path 198" d="M434.188,199.739a16.938,16.938,0,0,0-.88-1.811l1.006-5.832-6.1-4.7-5.388,2.461a16.866,16.866,0,0,0-3.981-.537l-4.545-3.785-7.126,2.935-.562,5.888a16.825,16.825,0,0,0-2.448,3.185l-5.559,2.046-1.021,7.639,4.821,3.432a16.852,16.852,0,0,0,.65,1.9,17.031,17.031,0,0,0,.88,1.811l-1.006,5.832,6.105,4.7,5.388-2.461a16.859,16.859,0,0,0,3.981.537l4.545,3.785,7.126-2.935.561-5.888a16.83,16.83,0,0,0,2.449-3.185l5.558-2.046,1.022-7.639-4.821-3.432A17.055,17.055,0,0,0,434.188,199.739Zm-11.6,16.049a10.423,10.423,0,1,1,5.668-13.607A10.436,10.436,0,0,1,422.589,215.788Z" fill="#0098cc"/>
  </g>
  <path id="Path_199" data-name="Path 199" d="M843.555,254.661a16.781,16.781,0,0,0-1.233-1.592l-.213-5.914-6.941-3.35-4.767,3.516a16.891,16.891,0,0,0-4.007.292l-5.225-2.771-6.371,4.336.66,5.878a16.846,16.846,0,0,0-1.743,3.62l-5.019,3.145.569,7.685,5.424,2.369a16.216,16.216,0,0,0,2.261,3.322l.213,5.915,6.94,3.349,4.768-3.515a16.834,16.834,0,0,0,4.006-.293l5.226,2.771,6.371-4.335-.66-5.879a16.771,16.771,0,0,0,1.742-3.619l5.02-3.145-.569-7.685-5.424-2.369A16.805,16.805,0,0,0,843.555,254.661ZM835.5,272.75a10.423,10.423,0,1,1,2.753-14.481A10.434,10.434,0,0,1,835.5,272.75Z" fill="#0098cc"/>
  <path id="Path_200" data-name="Path 200" d="M1638.683,357.4a24.586,24.586,0,0,0-1.275-2.625l1.458-8.452-8.847-6.816-7.808,3.566a24.471,24.471,0,0,0-5.77-.778l-6.587-5.485-10.326,4.253-.814,8.533a24.45,24.45,0,0,0-3.549,4.615l-8.055,2.967-1.481,11.069,6.987,4.974a23.68,23.68,0,0,0,2.218,5.386l-1.458,8.452,8.847,6.817,7.808-3.567a24.47,24.47,0,0,0,5.77.778l6.587,5.485,10.326-4.253.814-8.533a24.446,24.446,0,0,0,3.549-4.615l8.055-2.966,1.481-11.07-6.987-4.974A24.714,24.714,0,0,0,1638.683,357.4Zm-16.81,23.258a15.105,15.105,0,1,1,8.215-19.719A15.122,15.122,0,0,1,1621.873,380.657Z" fill="#116481"/>
  <path id="Path_201" data-name="Path 201" d="M795.583,214.446a22.186,22.186,0,0,0-1.885-1.861l-1.307-7.676-9.633-3.162-5.606,5.414a22.178,22.178,0,0,0-5.175,1.078l-7.3-2.705-7.554,6.762,1.882,7.551a22.178,22.178,0,0,0-1.642,5.024l-6,4.974,2.079,9.923,7.485,2.146a21.442,21.442,0,0,0,3.526,3.94l1.307,7.676,9.634,3.162L781,251.278a22.179,22.179,0,0,0,5.174-1.078l7.3,2.705,7.554-6.762-1.882-7.551a22.181,22.181,0,0,0,1.642-5.024l6-4.974-2.079-9.923-7.485-2.146A22.14,22.14,0,0,0,795.583,214.446Zm-7.36,24.991a13.713,13.713,0,1,1,1.072-19.363A13.729,13.729,0,0,1,788.223,239.437Z" fill="#e1e7f4"/>
  <g id="Group_128" data-name="Group 128">
    <path id="Path_202" data-name="Path 202" d="M1454.247,366.69a23.359,23.359,0,1,1,23.359-23.359A23.385,23.385,0,0,1,1454.247,366.69Zm0-42.875a19.516,19.516,0,1,0,19.516,19.516A19.537,19.537,0,0,0,1454.247,323.815Z" fill="#eff2f9"/>
    <g id="Group_127" data-name="Group 127">
      <path id="Path_203" data-name="Path 203" d="M1454.247,388.809a45.479,45.479,0,1,1,45.479-45.478A45.529,45.529,0,0,1,1454.247,388.809Zm0-87.114a41.635,41.635,0,1,0,41.636,41.636A41.683,41.683,0,0,0,1454.247,301.7Z" fill="#eff2f9"/>
      <path id="Path_204" data-name="Path 204" d="M1454.247,415.049a71.718,71.718,0,1,1,71.718-71.718A71.8,71.8,0,0,1,1454.247,415.049Zm0-139.593a67.874,67.874,0,1,0,67.875,67.875A67.952,67.952,0,0,0,1454.247,275.456Z" fill="#eff2f9"/>
    </g>
  </g>
</svg>
